<?xml version="1.0" encoding="UTF-8" standalone="no"?>
<!DOCTYPE svg PUBLIC "-//W3C//DTD SVG 1.1//EN" "http://www.w3.org/Graphics/SVG/1.1/DTD/svg11.dtd">
<svg width="100%" height="100%" viewBox="0 0 428 715" version="1.1" xmlns="http://www.w3.org/2000/svg" xmlns:xlink="http://www.w3.org/1999/xlink" xml:space="preserve" xmlns:serif="http://www.serif.com/" style="fill-rule:evenodd;clip-rule:evenodd;stroke-linejoin:round;stroke-miterlimit:2;">
    <g id="Mesa-de-trabajo1" serif:id="Mesa de trabajo1" transform="matrix(1,0,0,1,-61.0114,-56.4954)">
        <rect x="61.011" y="56.495" width="427.233" height="714.301" style="fill:none;"/>
        <clipPath id="_clip1">
            <rect x="61.011" y="56.495" width="427.233" height="714.301"/>
        </clipPath>
        <g clip-path="url(#_clip1)">
            <g id="Grupo_82" transform="matrix(1,0,0,1,60.9524,0.495406)">
                <g id="Enmascarar_grupo_6" transform="matrix(-1,-7.65714e-16,7.65714e-16,-1,541.476,2165.59)">
                    <clipPath id="_clip2">
                        <path d="M0,1473.18C0,1473.18 65.524,1406.13 135.942,1396.28C206.36,1386.43 254.78,1443.97 326,1458.59C397.22,1473.21 533.039,1435.41 573.85,1473.19C574.984,1475.16 581.631,1486.94 582.763,1488.83C617.381,1546.52 595.233,1501.61 597.587,1538.8C608.016,1703.56 564.781,2110.46 564.781,2110.46L0,2110.46L0,1473.18Z"/>
                    </clipPath>
                    <g clip-path="url(#_clip2)">
                        <g opacity="0.69">
                            <g id="Rectángulo_22" transform="matrix(1,0,0,1,0,1311.06)">
                                <rect x="0" y="0" width="562.961" height="799.399" style="fill:rgb(36,127,140);"/>
                            </g>
                        </g>
                    </g>
                </g>
                <g id="Enmascarar_grupo_4" transform="matrix(-1,-7.65714e-16,7.65714e-16,-1,428,2149.31)">
                    <clipPath id="_clip3">
                        <path d="M0,1477.42C0,1477.42 49.874,1406.73 103.474,1396.35C157.074,1385.96 193.928,1446.62 248.138,1462.03C302.348,1477.44 405.728,1437.6 436.792,1477.42C437.655,1479.5 442.715,1491.92 443.576,1493.91C469.926,1554.74 453.067,1507.39 454.859,1546.6C462.797,1720.31 429.889,2149.31 429.889,2149.31L0,2149.31L0,1477.42Z"/>
                    </clipPath>
                    <g clip-path="url(#_clip3)">
                        <g id="Rectángulo_10" transform="matrix(1,1.63293e-17,1.63293e-17,0.93333,0.074,1306.83)">
                            <rect x="0" y="0" width="428.67" height="842.475" style="fill:rgb(5,24,52);"/>
                        </g>
                    </g>
                </g>
            </g>
        </g>
    </g>
</svg>
